<?xml version="1.0" encoding="utf-8"?>
<!-- Generator: Adobe Illustrator 21.0.0, SVG Export Plug-In . SVG Version: 6.00 Build 0)  -->
<svg version="1.1" id="图层_1" xmlns="http://www.w3.org/2000/svg" xmlns:xlink="http://www.w3.org/1999/xlink" x="0px" y="0px"
	 viewBox="0 0 28.7 369.3" style="enable-background:new 0 0 28.7 369.3;" xml:space="preserve">
<style type="text/css">
	.st0{fill:#fff;}
</style>
<path class="st0" d="M9.4,140.9h8.7c2.3,0,4.2,1.9,4.2,4.2v8.6c0,2.3-1.9,4.2-4.2,4.2H9.4c-2.3,0-4.1-1.9-4.1-4.2v-8.6
	C5.2,142.8,7.1,140.9,9.4,140.9L9.4,140.9z M8.7,144.8v2.3c0,0.2,0.2,0.4,0.4,0.4c0.2,0,0.4-0.2,0.4-0.4v-1.4l1.4,1.4
	c0.2,0.2,0.4,0.2,0.6,0c0.2-0.2,0.2-0.4,0-0.6l-1.4-1.4h1.3c0.2,0,0.4-0.2,0.4-0.4s-0.2-0.4-0.4-0.4c0,0-1.7,0-2.2,0
	C9,144.3,8.7,144.6,8.7,144.8z M18.7,154.1v-2.3c0-0.2-0.2-0.4-0.4-0.4c-0.2,0-0.4,0.2-0.4,0.4v1.4l-1.4-1.4c-0.2-0.2-0.4-0.2-0.6,0
	c-0.2,0.2-0.2,0.4,0,0.6l1.4,1.4H16c-0.2,0-0.4,0.2-0.4,0.4s0.2,0.4,0.4,0.4c0,0,1.6,0,2.2,0C18.4,154.6,18.7,154.3,18.7,154.1z
	 M18.7,144.8L18.7,144.8c0-0.2-0.2-0.4-0.4-0.4l0,0H16c-0.2,0-0.4,0.2-0.4,0.4s0.2,0.4,0.4,0.4h1.3l-1.4,1.4c-0.2,0.1-0.2,0.4,0,0.6
	c0.2,0.2,0.4,0.2,0.6,0l1.4-1.4v1.4c0,0.2,0.2,0.4,0.4,0.4c0.2,0,0.4-0.2,0.4-0.4V144.8L18.7,144.8z M8.7,154.1L8.7,154.1
	c0,0.2,0.2,0.4,0.4,0.4l0,0h2.3c0.2,0,0.4-0.2,0.4-0.4c0-0.2-0.2-0.4-0.4-0.4h-1.3l1.4-1.4c0.2-0.2,0.2-0.4,0-0.6
	c-0.2-0.2-0.4-0.2-0.6,0l-1.4,1.4v-1.4c0-0.2-0.2-0.4-0.4-0.4c-0.2,0-0.4,0.2-0.4,0.4V154.1L8.7,154.1z M18.1,142.3L18.1,142.3H9.4
	c-1.6,0-2.8,1.3-2.8,2.9v8.6c0,1.6,1.3,2.9,2.8,2.9h8.7c1.6,0,2.8-1.3,2.8-2.9v-8.7C20.9,143.6,19.6,142.3,18.1,142.3L18.1,142.3z"
	/>
<g>
	<path class="st0" d="M9.4,173.4h8.7c2.3,0,4.2,1.9,4.2,4.2v8.6c0,2.3-1.9,4.2-4.2,4.2H9.4c-2.3,0-4.1-1.9-4.1-4.2v-8.6
		C5.2,175.3,7.1,173.4,9.4,173.4L9.4,173.4z M18.1,174.7L18.1,174.7H9.4c-1.6,0-2.8,1.3-2.8,2.9v8.6c0,1.6,1.3,2.9,2.8,2.9h8.7
		c1.6,0,2.8-1.3,2.8-2.9v-8.6C20.9,176,19.6,174.7,18.1,174.7L18.1,174.7z"/>
	<path class="st0" d="M11.5,176.8c-0.2,0-0.4,0.2-0.4,0.4v1.4l-1.4-1.4c-0.2-0.2-0.4-0.2-0.6,0c-0.2,0.2-0.2,0.4,0,0.6l1.4,1.4H9.2
		c-0.2,0-0.4,0.2-0.4,0.4S9,180,9.2,180h2.3c0.2,0,0.4-0.2,0.4-0.4v-2.3C11.9,177,11.7,176.8,11.5,176.8L11.5,176.8z M18.4,179.1
		L18.4,179.1h-1.3l1.4-1.4c0.2-0.2,0.2-0.4,0-0.6s-0.4-0.2-0.6,0l-1.4,1.4v-1.4c0-0.2-0.2-0.4-0.4-0.4c-0.2,0-0.4,0.2-0.4,0.4v2.3
		c0,0.2,0.2,0.4,0.4,0.4h2.3c0.2,0,0.4-0.2,0.4-0.4C18.8,179.3,18.6,179.1,18.4,179.1L18.4,179.1z M11.5,183.8L11.5,183.8H9.2
		c-0.2,0-0.4,0.2-0.4,0.4c0,0.2,0.2,0.4,0.4,0.4h1.3L9.1,186c-0.2,0.2-0.2,0.4,0,0.6s0.4,0.2,0.6,0l1.4-1.4v1.4
		c0,0.2,0.2,0.4,0.4,0.4c0.2,0,0.4-0.2,0.4-0.4v-2.3C11.9,184,11.7,183.8,11.5,183.8L11.5,183.8z M18.4,183.8L18.4,183.8h-2.3
		c-0.2,0-0.4,0.2-0.4,0.4v2.3c0,0.2,0.2,0.4,0.4,0.4c0.2,0,0.4-0.2,0.4-0.4v-1.4l1.4,1.4c0.1,0.2,0.4,0.2,0.6,0
		c0.2-0.2,0.2-0.4,0-0.6l-1.4-1.4h1.3c0.2,0,0.4-0.2,0.4-0.4C18.8,184,18.6,183.8,18.4,183.8L18.4,183.8z"/>
</g>
<g>
	<path class="st0" d="M22.3,208.3c0-1.2-1-2.2-2.2-2.2H7.6c-1.2,0-2.2,1-2.2,2.2v9.7l0,0v2.6c0,1.2,1,2.2,2.2,2.2h10.7
		c0.3,0,0.6-0.3,0.6-0.6s-0.3-0.6-0.6-0.6H7.6c-0.6,0-1-0.5-1-1V210v-1.7c0-0.6,0.5-1,1-1h12.5c0.6,0,1,0.5,1,1v10.5
		c0,0.3,0.3,0.6,0.6,0.6c0.3,0,0.6-0.3,0.6-0.6V208.3L22.3,208.3L22.3,208.3z"/>
	<path class="st0" d="M17.4,217.1c0.7-0.9,1.1-1.9,1.1-3c0-1.3-0.5-2.5-1.4-3.5c-0.9-0.9-2.2-1.4-3.5-1.4s-2.5,0.5-3.5,1.4
		c-0.9,0.9-1.4,2.2-1.4,3.5c0,1.3,0.5,2.5,1.4,3.5c0.9,0.9,2.2,1.4,3.5,1.4c1.1,0,2.1-0.4,3-1l3.3,3.3c0.1,0.1,0.3,0.2,0.4,0.2
		c0.2,0,0.3-0.1,0.4-0.2c0.2-0.2,0.2-0.6,0-0.9L17.4,217.1L17.4,217.1L17.4,217.1z M9.5,214.1c0-2.2,1.8-4,4-4s4,1.8,4,4
		c0,2.2-1.8,4-4,4S9.5,216.3,9.5,214.1L9.5,214.1L9.5,214.1z"/>
</g>
<path class="st0" d="M21.7,238.5H6l0,0c-0.4,0-0.7,0.3-0.7,0.7v15.7l0,0c0,0.4,0.3,0.7,0.7,0.7h15.7l0,0c0.4,0,0.7-0.3,0.7-0.7
	v-15.7l0,0C22.3,238.8,22,238.5,21.7,238.5z M13.4,244.8v1.8v7.6H6.6v-7.6v-1.8v-5h6.8V244.8z M21,245.1v1.5v7.6h-6.8v-7.6v-1.5
	v-5.3H21V245.1z"/>
<g>
	<path class="st0" d="M16.5,125.2h-5.3v-0.8h0.2c0.8,0.1,1.2-0.5,1.2-1.8v-5c0.1-0.6-0.2-1-0.7-1.1l-0.7-0.3v-0.6l3.6-1.5h0.3v8.7
		c0,1,0.4,1.6,1.3,1.6L16.5,125.2L16.5,125.2z M15.6,110c-0.1,1.1-0.7,1.7-1.6,1.8c-1-0.1-1.6-0.7-1.7-1.8c0.1-1,0.7-1.6,1.7-1.7
		C15,108.3,15.5,108.9,15.6,110z"/>
</g>
<path class="st0" d="M19,55.9l3.1,3.1c0.3,0.3,0.3,0.7,0,1s-0.7,0.3-1,0L18,56.9c-0.6,0.5-1.3,0.9-2,1.2c-0.9,0.4-1.9,0.6-3,0.6
	c-1,0-2.1-0.2-3-0.6l0,0c-0.9-0.4-1.8-1-2.5-1.7l0,0c-0.7-0.7-1.3-1.6-1.7-2.5l0,0C5.5,53,5.3,52,5.3,51c0-4.2,3.5-7.8,7.7-7.8
	c1,0,2,0.2,3,0.6l0,0c0.9,0.4,1.8,1,2.5,1.7l0,0c0.7,0.7,1.3,1.6,1.7,2.5l0,0c0.4,0.9,0.6,1.9,0.6,2.9c0,1.1-0.2,2.1-0.6,3
	C19.9,54.7,19.5,55.4,19,55.9L19,55.9z M16,50.6L16,50.6h-2.5v-2.5c0-0.2-0.2-0.4-0.4-0.4s-0.4,0.2-0.4,0.4v2.5h-2.5
	c-0.2,0-0.4,0.2-0.4,0.4c0,0.2,0.2,0.4,0.4,0.4h2.5v2.5c0,0.2,0.2,0.4,0.4,0.4s0.4-0.2,0.4-0.4v-2.5H16c0.2,0,0.4-0.2,0.4-0.4
	C16.4,50.8,16.2,50.6,16,50.6L16,50.6z M15.5,45.1L15.5,45.1c-0.7-0.3-1.6-0.5-2.4-0.5c-3.5,0-6.3,2.9-6.3,6.3
	c0,0.8,0.2,1.7,0.5,2.4l0,0c0.3,0.8,0.8,1.5,1.4,2.1l0,0l0,0c0.6,0.6,1.3,1.1,2.1,1.4c0.7,0.3,1.6,0.5,2.4,0.5
	c0.9,0,1.7-0.2,2.4-0.5c1.5-0.6,2.8-1.9,3.4-3.4c0.3-0.7,0.5-1.6,0.5-2.4s-0.2-1.6-0.5-2.4l0,0c-0.3-0.8-0.8-1.4-1.3-2l0,0
	C17,45.9,16.3,45.5,15.5,45.1L15.5,45.1L15.5,45.1z"/>
<path class="st0" d="M19,88.4l3.1,3.1c0.3,0.3,0.3,0.7,0,1c-0.3,0.3-0.7,0.3-1,0L18,89.4c-0.6,0.5-1.3,0.9-2,1.2
	c-0.9,0.4-1.9,0.6-3,0.6c-1,0-2-0.2-3-0.6c-0.9-0.4-1.8-1-2.5-1.7l0,0c-0.7-0.7-1.3-1.6-1.7-2.5l0,0c-0.4-0.9-0.6-1.9-0.6-2.9
	c0-4.2,3.5-7.8,7.7-7.8c1,0,2,0.2,3,0.6l0,0c0.9,0.4,1.8,1,2.5,1.7l0,0c0.7,0.7,1.3,1.6,1.7,2.5l0,0c0.4,1,0.6,2,0.6,3
	c0,1.1-0.2,2.1-0.6,3C19.9,87.2,19.5,87.9,19,88.4L19,88.4z M15.9,83.1L15.9,83.1h-5.8c-0.2,0-0.4,0.2-0.4,0.4
	c0,0.2,0.2,0.4,0.4,0.4h5.8c0.2,0,0.4-0.2,0.4-0.4C16.3,83.3,16.1,83.1,15.9,83.1L15.9,83.1z M15.4,77.6L15.4,77.6
	c-0.7-0.3-1.6-0.5-2.4-0.5c-3.5,0-6.3,2.9-6.3,6.3c0,0.8,0.2,1.7,0.5,2.4l0,0c0.3,0.8,0.8,1.5,1.4,2.1l0,0l0,0
	c0.6,0.6,1.3,1.1,2.1,1.4c0.7,0.3,1.6,0.5,2.4,0.5c0.9,0,1.7-0.2,2.4-0.5c1.5-0.6,2.8-1.9,3.4-3.4c0.3-0.7,0.5-1.6,0.5-2.4
	c0-0.8-0.2-1.6-0.5-2.4l0,0c-0.3-0.8-0.8-1.4-1.3-2l0,0C16.9,78.4,16.2,78,15.4,77.6L15.4,77.6z"/>
<path class="st0" d="M22.3,18.7l-2.6-2.5c-0.1-0.1-0.3-0.2-0.4-0.2l0,0c-0.2,0-0.3,0.1-0.4,0.2c-0.1,0.1-0.2,0.3-0.2,0.4
	c0,0.2,0.1,0.3,0.2,0.4l1.5,1.5h-6v-6l1.5,1.5c0.2,0.2,0.6,0.2,0.8,0c0.2-0.2,0.2-0.6,0-0.8l-2.4-2.5l0,0l0,0l0,0
	c-0.2-0.2-0.5-0.1-0.7,0L11,13.3c-0.1,0.1-0.2,0.3-0.2,0.4c0,0.2,0.1,0.3,0.2,0.4c0.2,0.2,0.6,0.2,0.8,0l1.5-1.5v6h-6l1.5-1.5
	c0.2-0.2,0.2-0.6,0-0.8s-0.6-0.2-0.8,0l-2.6,2.4c-0.2,0.3-0.2,0.6,0,0.8L8,22.1c0.2,0.2,0.6,0.2,0.9,0c0.2-0.2,0.2-0.6,0-0.8
	l-1.6-1.6h6v6l-1.5-1.5c-0.2-0.2-0.6-0.2-0.8,0c-0.2,0.2-0.2,0.6,0,0.8l2.5,2.5l0,0c0.1,0.2,0.2,0.2,0.3,0.2s0.3-0.1,0.4-0.2
	l2.6-2.6c0.1-0.1,0.2-0.3,0.2-0.4c0-0.2-0.1-0.3-0.2-0.4c-0.2-0.2-0.6-0.2-0.8,0l-1.6,1.6v-6h6l-1.5,1.5c-0.1,0.1-0.2,0.3-0.2,0.4
	c0,0.2,0.1,0.3,0.2,0.4c0.2,0.2,0.6,0.2,0.8,0l2.5-2.5C22.5,19.3,22.5,19,22.3,18.7z"/>
<path class="st0" d="M17.3,311.7l-6.2-6.2c-0.2-0.2-0.6-0.2-0.8,0c-0.2,0.2-0.2,0.6,0,0.8l5.8,5.8l-5.8,5.8c-0.2,0.2-0.2,0.6,0,0.8
	c0.1,0.1,0.2,0.2,0.4,0.2s0.3-0.1,0.4-0.2l6.2-6.2C17.5,312.2,17.5,311.9,17.3,311.7z"/>
<path class="st0" d="M13.8,336.2c2.3,0,4.5,1,6,2.5c1.5,1.5,2.5,3.7,2.5,6c0,2.3-1,4.5-2.5,6c-1.5,1.5-3.7,2.5-6,2.5
	c-2.3,0-4.5-0.9-6-2.5c-1.5-1.5-2.5-3.7-2.5-6c0-2.3,0.9-4.5,2.5-6C9.3,337.2,11.5,336.2,13.8,336.2L13.8,336.2z M13.4,351.9
	L13.4,351.9v-2.7c-0.8,0-1.5,0.2-2.2,0.5c-0.1,0-0.2,0.1-0.3,0.1c0.1,0.1,0.1,0.2,0.2,0.4c0.4,0.8,1,1.4,1.5,1.7
	C12.9,351.9,13.2,351.9,13.4,351.9L13.4,351.9z M18.9,339.6L18.9,339.6c-0.1-0.1-0.1-0.1-0.2-0.2c-0.3,0.2-0.7,0.4-1,0.6
	c0.5,1.2,0.7,2.7,0.8,4.2H21C20.9,342.5,20.1,340.9,18.9,339.6L18.9,339.6z M18.1,338.9L18.1,338.9c-0.4-0.3-0.9-0.6-1.5-0.8
	c0.2,0.3,0.4,0.6,0.6,0.9c0.1,0.1,0.1,0.3,0.2,0.4C17.7,339.3,17.9,339.1,18.1,338.9L18.1,338.9z M15,337.6L15,337.6
	c-0.3,0-0.5-0.1-0.8-0.1v2.8c0.8,0,1.5-0.2,2.2-0.5c0.1,0,0.2-0.1,0.3-0.1c-0.1-0.1-0.1-0.2-0.2-0.4C16.1,338.6,15.6,338,15,337.6
	L15,337.6z M13.4,337.5L13.4,337.5c-0.3,0-0.5,0.1-0.8,0.1c-0.6,0.4-1.1,1-1.5,1.7c-0.1,0.1-0.1,0.2-0.2,0.4c0.1,0,0.2,0.1,0.3,0.1
	c0.7,0.3,1.4,0.4,2.2,0.5V337.5L13.4,337.5z M11,338.1L11,338.1c-0.5,0.2-1,0.5-1.5,0.8c0.2,0.2,0.5,0.3,0.7,0.4
	c0.1-0.1,0.1-0.3,0.2-0.4C10.6,338.7,10.8,338.4,11,338.1L11,338.1z M8.9,339.5L8.9,339.5c-0.1,0.1-0.1,0.1-0.2,0.2
	c-1.2,1.2-2,2.9-2.1,4.7h2.5c0-1.6,0.3-3,0.8-4.2C9.6,339.9,9.2,339.7,8.9,339.5L8.9,339.5z M6.6,345.1L6.6,345.1
	c0.1,1.8,0.9,3.5,2.1,4.7l0.2,0.2c0.3-0.2,0.7-0.4,1-0.6c-0.5-1.2-0.7-2.7-0.8-4.2H6.6L6.6,345.1z M9.5,350.5L9.5,350.5
	c0.5,0.3,0.9,0.6,1.5,0.8c-0.2-0.3-0.4-0.6-0.6-0.9c-0.1-0.1-0.1-0.3-0.2-0.4C10,350.2,9.7,350.3,9.5,350.5L9.5,350.5z M14.2,351.9
	L14.2,351.9c0.3,0,0.5,0,0.8-0.1c0.6-0.4,1.1-1,1.5-1.7c0.1-0.1,0.1-0.2,0.2-0.4c-0.1,0-0.2-0.1-0.3-0.1c-0.7-0.3-1.4-0.4-2.2-0.5
	V351.9L14.2,351.9z M16.6,351.3L16.6,351.3c0.5-0.2,1-0.5,1.5-0.8c-0.2-0.2-0.4-0.3-0.7-0.4c-0.1,0.1-0.1,0.3-0.2,0.4
	C17,350.8,16.8,351.1,16.6,351.3L16.6,351.3z M18.7,350L18.7,350l0.2-0.2c1.2-1.2,2-2.9,2.1-4.7h-2.5c0,1.6-0.3,3-0.8,4.2
	C18.1,349.5,18.4,349.8,18.7,350L18.7,350z M17,340.4L17,340.4c-0.1,0-0.2,0.1-0.3,0.1c-0.8,0.3-1.6,0.5-2.5,0.5v3.3h3.5
	C17.7,342.9,17.4,341.6,17,340.4L17,340.4z M13.4,341.1L13.4,341.1c-0.9,0-1.7-0.2-2.5-0.5c-0.1,0-0.2-0.1-0.3-0.1
	c-0.4,1.1-0.7,2.4-0.7,3.9h3.5V341.1L13.4,341.1z M13.4,348.4L13.4,348.4v-3.3H9.9c0,1.4,0.3,2.8,0.7,3.9c0.1,0,0.2-0.1,0.3-0.1
	C11.7,348.6,12.6,348.4,13.4,348.4L13.4,348.4z M14.2,348.4L14.2,348.4c0.9,0,1.7,0.2,2.5,0.5c0.1,0,0.2,0.1,0.3,0.1
	c0.4-1.1,0.7-2.5,0.7-3.9h-3.5V348.4L14.2,348.4z"/>
<path class="st0" d="M22.3,278c0-0.7-0.5-1.2-1.2-1.2c-0.2,0-0.4,0.1-0.6,0.2l-5.6-4.1c0-0.1,0-0.1,0-0.2c0-0.7-0.5-1.2-1.2-1.2
	c-0.7,0-1.2,0.5-1.2,1.2c0,0.1,0,0.1,0,0.2l-5.6,4c-0.2-0.1-0.3-0.1-0.5-0.1c-0.7,0-1.2,0.5-1.2,1.2c0,0.6,0.4,1,0.9,1.1l2.1,6.6
	c-0.2,0.2-0.3,0.5-0.3,0.8c0,0.7,0.5,1.2,1.2,1.2c0.4,0,0.8-0.2,1-0.6h7c0.2,0.3,0.6,0.6,1,0.6c0.7,0,1.2-0.5,1.2-1.2
	c0-0.3-0.1-0.6-0.3-0.8l2.1-6.6C21.9,279.1,22.3,278.6,22.3,278z M18.2,285.3c-0.5,0-0.9,0.3-1,0.8h-6.8c-0.2-0.4-0.5-0.7-1-0.8
	l-2.1-6.4c0.3-0.2,0.5-0.5,0.5-0.9c0-0.1,0-0.2-0.1-0.3l5.5-4c0.2,0.1,0.3,0.1,0.5,0.1c0.2,0,0.4-0.1,0.5-0.1l5.6,4.1
	c0,0.1,0,0.1,0,0.2c0,0.3,0.1,0.6,0.4,0.9L18.2,285.3z M21.7,278c0,0.3-0.3,0.6-0.6,0.6c-0.3,0-0.6-0.3-0.6-0.6
	c0-0.3,0.3-0.6,0.6-0.6C21.4,277.4,21.7,277.7,21.7,278z M20.3,277.1C20.3,277.1,20.3,277.1,20.3,277.1L20.3,277.1L20.3,277.1z
	 M13.8,272.1c0.3,0,0.6,0.3,0.6,0.6c0,0.3-0.3,0.6-0.6,0.6s-0.6-0.3-0.6-0.6C13.2,272.3,13.4,272.1,13.8,272.1z M6.5,277.4
	c0.3,0,0.6,0.3,0.6,0.6c0,0.3-0.3,0.6-0.6,0.6s-0.6-0.3-0.6-0.6C5.9,277.7,6.2,277.4,6.5,277.4z M9.2,287.1c-0.3,0-0.6-0.3-0.6-0.6
	c0-0.3,0.3-0.6,0.6-0.6s0.6,0.3,0.6,0.6C9.8,286.8,9.5,287.1,9.2,287.1z M18.2,287.1c-0.3,0-0.6-0.3-0.6-0.6c0-0.3,0.3-0.6,0.6-0.6
	c0.3,0,0.6,0.3,0.6,0.6C18.8,286.8,18.6,287.1,18.2,287.1z"/>
</svg>
